HIERARCHY
ROOT Pelvis
{
	OFFSET 0.000000 0.000000 0.000000
	CHANNELS 6 Xposition Yposition Zposition Zrotation Yrotation Xrotation 
	JOINT Left_hip
	{
		OFFSET 0.068973 -0.091024 -0.007589
		CHANNELS 3 Zrotation Yrotation Xrotation
		JOINT Left_knee
		{
			OFFSET 0.036482 -0.391037 -0.003979
			CHANNELS 3 Zrotation Yrotation Xrotation
			JOINT Left_ankle
			{
				OFFSET -0.012239 -0.415469 -0.043440
				CHANNELS 3 Zrotation Yrotation Xrotation
				JOINT Left_foot
				{
					OFFSET 0.023806 -0.058558 0.118702
					CHANNELS 3 Zrotation Yrotation Xrotation
					End Site
					{
						OFFSET 0.000000 0.000000 0.000000
					}
				}
			}
		}
	}
	JOINT Right_hip
	{
		OFFSET -0.066552 -0.090468 -0.003847
		CHANNELS 3 Zrotation Yrotation Xrotation
		JOINT Right_knee
		{
			OFFSET -0.042435 -0.398340 -0.006400
			CHANNELS 3 Zrotation Yrotation Xrotation
			JOINT Right_ankle
			{
				OFFSET 0.014931 -0.415421 -0.041327
				CHANNELS 3 Zrotation Yrotation Xrotation
				JOINT Right_foot
				{
					OFFSET -0.021472 -0.049410 0.121889
					CHANNELS 3 Zrotation Yrotation Xrotation
					End Site
					{
						OFFSET 0.000000 0.000000 0.000000
					}
				}
			}
		}
	}
	JOINT Spine1
	{
		OFFSET -0.002904 0.105700 -0.022855
		CHANNELS 3 Zrotation Yrotation Xrotation
		JOINT Spine2
		{
			OFFSET 0.004179 0.132554 -0.002501
			CHANNELS 3 Zrotation Yrotation Xrotation
			JOINT Spine3
			{
				OFFSET 0.001987 0.049603 0.025988
				CHANNELS 3 Zrotation Yrotation Xrotation
				JOINT Neck
				{
					OFFSET -0.003935 0.211336 -0.045638
					CHANNELS 3 Zrotation Yrotation Xrotation
					JOINT Head
					{
						OFFSET 0.003906 0.065991 0.051018
						CHANNELS 3 Zrotation Yrotation Xrotation
						End Site
						{
							OFFSET 0.000000 0.000000 0.000000
						}
					}
				}
				JOINT Left_collar
				{
					OFFSET 0.072882 0.117751 -0.036270
					CHANNELS 3 Zrotation Yrotation Xrotation
					JOINT Left_shoulder
					{
						OFFSET 0.082118 0.032630 -0.005771
						CHANNELS 3 Zrotation Yrotation Xrotation
						JOINT Left_elbow
						{
							OFFSET 0.263305 -0.015144 -0.028095
							CHANNELS 3 Zrotation Yrotation Xrotation
							JOINT Left_wrist
							{
								OFFSET 0.250741 0.010115 -0.000759
								CHANNELS 3 Zrotation Yrotation Xrotation
								JOINT Left_palm
								{
									OFFSET 0.080683 -0.009989 -0.013613
									CHANNELS 3 Zrotation Yrotation Xrotation
									End Site
									{
										OFFSET 0.000000 0.000000 0.000000
									}
								}
							}
						}
					}
				}
				JOINT Right_collar
				{
					OFFSET -0.074811 0.116132 -0.040385
					CHANNELS 3 Zrotation Yrotation Xrotation
					JOINT Right_shoulder
					{
						OFFSET -0.085089 0.032943 -0.007484
						CHANNELS 3 Zrotation Yrotation Xrotation
						JOINT Right_elbow
						{
							OFFSET -0.254763 -0.014219 -0.020321
							CHANNELS 3 Zrotation Yrotation Xrotation
							JOINT Right_wrist
							{
								OFFSET -0.256597 0.009233 -0.005063
								CHANNELS 3 Zrotation Yrotation Xrotation
								JOINT Right_palm
								{
									OFFSET -0.080528 -0.007219 -0.010379
									CHANNELS 3 Zrotation Yrotation Xrotation
									End Site
									{
										OFFSET 0.000000 0.000000 0.000000
									}
								}
							}
						}
					}
				}
			}
		}
	}
}
MOTION
Frames: 8
Frame Time: 0.100000
0.000000 0.000000 0.000000 174.902100 23.055157 -19.001687 7.139803 8.083775 14.325305 -2.654544 5.312411 -2.564181 -4.114759 11.462875 0.277337 4.886615 6.171970 -5.209771 -3.281130 -6.268972 14.093599 3.066891 -6.153190 -4.359539 4.560894 -6.588788 -0.099574 -1.561146 -3.187047 3.245502 2.197648 1.287021 -0.272723 0.130033 -1.947666 8.591542 1.494816 -0.392625 0.257720 2.261307 25.012649 7.323879 -3.714866 17.785908 -4.928301 -25.473339 -4.854852 7.728039 -52.617366 -1.033057 9.740734 1.956121 -26.175395 17.870223 -10.552613 -11.404688 8.878752 -10.054119 -3.018907 -21.384596 22.621917 7.983785 10.043294 52.114508 3.246643 13.087118 -6.745437 25.102012 7.645480 6.094468 7.351693 4.794374 10.899636 4.060481 -8.503488 
0.003227 -0.000793 0.000915 174.726449 22.771602 -19.094568 7.482518 8.032800 13.210722 -2.355355 5.912503 -0.446868 -4.129084 11.268692 0.106823 4.491881 6.363856 -4.835466 -2.665210 -5.876401 13.554276 2.833543 -5.929135 -3.434376 3.420264 -6.736625 -0.183333 -0.899246 -3.414679 4.228865 1.414688 1.080715 -0.405982 0.775373 -2.577241 9.377213 1.088442 -0.911091 -0.586797 1.871867 11.933046 7.327314 -1.058623 4.558308 -4.366298 -25.319916 -4.682082 8.122113 -51.802676 -1.963062 10.719626 2.635443 -26.848664 15.957587 -11.102618 -11.269199 10.018744 -9.948902 -2.987238 -20.845771 23.503860 9.189275 9.059653 51.809901 1.751527 13.470512 -6.625707 24.953539 7.897666 5.639140 7.487334 5.003702 10.324101 3.856025 -7.720337 
0.005791 -0.000626 -0.000281 174.714451 22.589991 -19.041558 7.583587 7.935050 12.420286 -2.232717 6.356369 0.692070 -3.956977 10.919325 0.088570 3.710691 6.950822 -4.263617 -2.300404 -5.579432 13.073392 2.664730 -5.966213 -3.029814 2.202468 -6.676885 -0.164225 0.078097 -4.046615 5.018574 0.533746 0.992114 -0.442292 1.027290 -2.957022 10.334101 0.497415 -1.286964 -1.349445 2.178024 -0.792531 7.669002 2.373954 -8.306551 -6.120460 -25.203776 -4.563272 8.244647 -50.605524 -3.160806 11.083637 4.173140 -27.272920 12.979627 -12.087181 -11.509448 11.082257 -9.328096 -2.494651 -20.183365 24.043870 10.595634 8.217059 52.181051 0.156663 13.976480 -6.345964 24.908604 8.662276 5.385985 7.835643 5.153279 9.194178 3.355687 -6.632139 
0.004810 -0.000757 -0.002482 174.954904 22.596814 -18.916584 7.516556 8.044428 13.344613 -2.818157 6.403851 -1.217402 -3.821439 10.262546 0.430350 2.964262 7.583122 -3.283180 -2.859409 -5.447220 13.546933 3.038049 -5.923981 -4.166242 2.093289 -6.250519 0.324188 0.419834 -4.361314 5.135638 -0.184993 0.919227 -0.934139 1.061906 -3.180152 11.544806 0.205870 -1.662594 -1.734786 2.629011 -7.499421 7.751054 4.802851 -15.512876 -8.176231 -25.697104 -4.995522 8.748690 -49.457062 -4.285105 10.454762 5.174828 -26.996405 11.004186 -12.587897 -11.623868 11.821109 -8.423849 -1.790771 -20.192238 24.726446 11.615065 8.238720 52.024413 -0.347102 14.086639 -6.344863 24.721045 9.092314 5.067658 7.713965 6.030068 8.116036 2.896836 -6.341204 
-0.002483 0.000552 -0.010182 174.884816 23.448963 -19.007235 6.951102 7.945076 14.250263 -3.283514 5.920025 -3.434104 -3.726288 9.735750 0.562412 2.645723 7.893452 -2.713656 -3.605341 -5.490059 14.038280 3.187659 -6.296049 -5.350343 2.309286 -6.101351 0.982914 0.459771 -4.763642 5.032529 0.000754 0.679150 -0.908250 0.969586 -3.458788 11.828883 0.112944 -1.999511 -1.591298 2.768811 -9.654293 7.727462 5.987169 -17.451679 -9.681078 -26.084837 -5.540691 9.307921 -49.545178 -5.079357 10.031983 5.442152 -27.343645 10.772166 -12.997450 -11.976246 11.704436 -7.895238 -1.258577 -20.381874 24.402183 12.098546 8.306841 51.992465 -0.260840 13.842097 -6.679520 24.452250 8.980618 5.106877 7.611229 5.939065 7.358416 2.588260 -6.358204 
-0.014097 0.002914 -0.023295 174.437147 24.291223 -19.326236 6.095097 7.972456 14.266226 -3.333976 5.557004 -4.247246 -3.342921 9.511567 0.108312 2.410049 7.984798 -2.224891 -4.106537 -5.554976 13.196323 2.752999 -6.969727 -4.219777 2.129780 -5.992307 1.274812 1.071638 -5.330350 5.021673 0.640944 0.474529 -0.461571 1.416141 -3.703078 12.413157 0.296412 -2.047054 -1.811156 2.441011 -10.642013 7.711078 6.586848 -18.004948 -11.907096 -26.310346 -6.016477 9.495926 -50.324389 -5.070460 10.451798 5.265930 -28.965392 10.917824 -13.068362 -12.252123 11.691843 -8.001336 -1.351697 -20.477211 24.045255 12.633788 8.265557 51.088908 -0.332464 13.336058 -7.231774 24.569958 8.048367 5.210216 7.825860 5.959858 7.376347 2.580919 -6.536762 
-0.022889 0.007126 -0.038105 173.862768 24.435891 -19.957322 5.473318 8.368607 15.572563 -3.303959 4.620018 -6.885564 -2.611589 9.508967 -0.316421 2.106198 8.404086 -1.458006 -4.270660 -5.398455 9.278836 1.560870 -7.898568 2.767746 2.243920 -6.029029 0.089713 0.917651 -5.412615 4.522395 0.470609 -0.333117 0.436023 2.207362 -3.777582 13.281719 0.531483 -2.146675 -2.011643 2.689806 -13.587960 7.817578 8.116073 -20.797894 -14.526858 -25.746446 -6.501493 9.702169 -50.761857 -4.336926 11.195496 4.342150 -30.347505 11.273766 -12.982912 -11.654894 12.172416 -8.531814 -1.867088 -21.114672 23.729637 13.802518 7.526162 50.794069 -0.032922 13.186937 -7.766550 24.922038 7.222697 5.388852 7.720724 6.093613 7.616971 2.578408 -6.886488 
-0.020667 0.013482 -0.057346 173.848578 23.303908 -20.635274 5.044451 8.799555 16.484895 -3.305169 3.539563 -8.694305 -0.993688 9.782783 -0.531608 1.382762 9.937619 -1.087975 -4.423803 -4.329627 0.460588 -0.426794 -8.272745 17.848814 3.224522 -6.412168 -0.406374 -0.970556 -4.424597 2.268601 -1.294456 -1.747239 3.332960 2.600893 -3.692134 14.508582 0.486626 -2.590922 -2.078482 4.095003 -15.474560 6.148017 10.530482 -23.346949 -17.748098 -24.820040 -7.675046 9.900523 -49.946677 -3.341319 10.656228 4.460605 -29.511499 8.807716 -13.210483 -9.662903 12.657657 -9.338518 -2.933136 -21.630453 23.548653 15.320481 6.092775 51.698074 0.712044 13.508967 -9.424084 30.216179 6.128064 5.440726 7.506591 6.434187 8.872790 2.865208 -7.299753 
